<svg id="Layer_1" xmlns="http://www.w3.org/2000/svg" viewBox="0 0 69.4 69.6"><style>.st0{fill:#fff}</style><path class="st0" d="M37.2 44c-.6 0-1.4-.2-2.2-.5-1.8-.7-3.8-2-5.6-3.8s-3.1-3.8-3.8-5.6c-.6-1.7-.6-3 0-3.6l.3-.3c.6-.6 1.2-1.3 2.1-1.2.6 0 1.2.4 1.7 1.1 1.7 2.1.9 2.9 0 3.8l-.1.1c-.1.1-.4.8 2.2 3.4.8.8 1.6 1.5 2.1 1.8.4.2 1 .6 1.3.3l.2-.2c.9-.9 1.6-1.7 3.8.1.7.6 1.1 1.2 1.1 1.7 0 .9-.6 1.5-1.2 2.1l-.3.3c-.4.4-.9.5-1.6.5zm-9.3-14.5c-.6 0-1.2.6-1.6 1.1l-.3.3c-.5.5-.4 1.7.1 3.1.7 1.8 2 3.7 3.7 5.4s3.7 3.1 5.4 3.7c1.4.5 2.6.6 3.1.1l.3-.3c.5-.5 1.1-1.1 1.1-1.7 0-.4-.3-.9-.9-1.4-1.8-1.4-2.3-.9-3.1-.1l-.2.2c-.4.4-1 .3-1.9-.3-.6-.4-1.4-1-2.2-1.9-2.1-2.1-2.8-3.5-2.2-4.1l.2-.2c.8-.8 1.3-1.3-.1-3.1-.5-.5-1-.8-1.4-.8zm9.4 5.7c-.2-.1-.3-.2-.2-.3.3-.8.1-1.7-.5-2.3s-1.6-.8-2.4-.4c-.1.1-.3 0-.3-.1-.1-.1 0-.3.1-.3 1-.5 2.2-.2 3 .5.8.8 1 1.9.6 2.9-.1-.1-.2 0-.3 0z"/><path class="st0" d="M39.6 36.1s-.1 0 0 0c-.2-.1-.3-.2-.2-.3.7-1.7.3-3.7-1-5s-3.4-1.7-5.1-.9c-.1.1-.3 0-.3-.1-.1-.1 0-.3.1-.3 1.9-.9 4.2-.5 5.7 1 1.4 1.4 1.9 3.6 1.1 5.5-.1 0-.2.1-.3.1z"/></svg>