<svg id="Layer_1" xmlns="http://www.w3.org/2000/svg" viewBox="0 0 11.7 10.9"><style>.st0{fill:#222221}</style><path class="st0" d="M7.6 9.1c-.2 0-.6-.1-1-.2-.8-.4-1.8-1-2.6-1.8S2.6 5.3 2.2 4.5c-.2-.8-.2-1.4 0-1.7l.1-.1c.3-.3.6-.6 1-.6.3 0 .6.2.8.5.8 1 .4 1.4 0 1.8 0 0-.2.4 1 1.6.4.4.7.7 1 .8.2.1.5.3.6.2l.1-.1c.4-.4.7-.8 1.8 0 .3.3.5.6.5.8 0 .4-.3.7-.6 1l-.1.1c-.2.2-.4.3-.8.3zM3.3 2.3c-.3 0-.6.3-.7.5l-.1.1c-.2.2-.2.8 0 1.4.3.8.9 1.7 1.7 2.5s1.7 1.4 2.5 1.7c.7.2 1.2.3 1.4 0l.1-.1c.2-.2.5-.5.5-.8 0-.2-.1-.4-.4-.7-.8-.7-1.1-.4-1.4 0l-.1.3c-.1.2-.4.1-.8-.2-.3-.2-.7-.5-1-.9-1-1-1.3-1.6-1-1.9v-.1c.4-.4.6-.6 0-1.4-.3-.2-.5-.4-.7-.4zM7.7 5c-.1 0-.1-.1-.1-.1.1-.4 0-.8-.2-1.1-.3-.3-.8-.4-1.2-.2h-.1v-.1c.5-.2 1-.1 1.4.2.4.3.5.8.3 1.3 0-.1-.1 0-.1 0z"/><path class="st0" d="M8.8 5.4s-.1 0 0 0c-.1 0-.1-.1-.1-.1.3-.8.1-1.8-.5-2.4s-1.6-.8-2.4-.4h-.1v-.1c.9-.4 2-.2 2.7.5.6.5.9 1.6.5 2.5h-.1z"/></svg>